<?xml version="1.0" encoding="UTF-8" standalone="no"?>
<svg
   id="svg8"
   version="1.1"
   viewBox="0 0 42.332763 54.665353"
   height="206.60921"
   width="159.99785"
   xmlns="http://www.w3.org/2000/svg"
   xmlns:svg="http://www.w3.org/2000/svg"
   xmlns:rdf="http://www.w3.org/1999/02/22-rdf-syntax-ns#"
   xmlns:cc="http://creativecommons.org/ns#"
   xmlns:dc="http://purl.org/dc/elements/1.1/">
  <defs
     id="defs2">
    <radialGradient
       fx="0"
       fy="0"
       cx="0"
       cy="0"
       r="1"
       gradientUnits="userSpaceOnUse"
       gradientTransform="matrix(323.99983,248.60365,248.60365,-323.99983,538.77313,503.71781)"
       spreadMethod="pad"
       id="radialGradient28">
      <stop
         style="stop-opacity:1;stop-color:#55e6e1"
         offset="0"
         id="stop22" />
      <stop
         style="stop-opacity:1;stop-color:#55e6e1"
         offset="0.424636"
         id="stop24" />
      <stop
         style="stop-opacity:1;stop-color:#0195b6"
         offset="1"
         id="stop26" />
    </radialGradient>
    <radialGradient
       fx="0.3515816"
       fy="-0.26697567"
       cx="0.3515816"
       cy="-0.26697567"
       r="1"
       gradientUnits="userSpaceOnUse"
       gradientTransform="matrix(14.518751,-13.367001,13.896342,15.093702,189.59031,174.96211)"
       spreadMethod="pad"
       id="radialGradient50">
      <stop
         style="stop-opacity:1;stop-color:#55e6e1"
         offset="0"
         id="stop44" />
      <stop
         style="stop-opacity:1;stop-color:#55e6e1"
         offset="0.424636"
         id="stop46" />
      <stop
         style="stop-opacity:1;stop-color:#0195b6"
         offset="1"
         id="stop48" />
    </radialGradient>
    <radialGradient
       fx="0"
       fy="0"
       cx="0"
       cy="0"
       r="1"
       gradientUnits="userSpaceOnUse"
       gradientTransform="matrix(323.99983,248.60365,248.60365,-323.99983,1793.3919,-473.6269)"
       spreadMethod="pad"
       id="radialGradient28-9">
      <stop
         style="stop-opacity:1;stop-color:#55e6e1"
         offset="0"
         id="stop22-1" />
      <stop
         style="stop-opacity:1;stop-color:#55e6e1"
         offset="0.424636"
         id="stop24-2" />
      <stop
         style="stop-opacity:1;stop-color:#0195b6"
         offset="1"
         id="stop26-7" />
    </radialGradient>
    <radialGradient
       fx="0.3515816"
       fy="-0.26697567"
       cx="0.3515816"
       cy="-0.26697567"
       r="1"
       gradientUnits="userSpaceOnUse"
       gradientTransform="matrix(14.518751,-13.367001,13.896342,15.093702,359.57507,307.37979)"
       spreadMethod="pad"
       id="radialGradient50-0">
      <stop
         style="stop-opacity:1;stop-color:#55e6e1"
         offset="0"
         id="stop44-9" />
      <stop
         style="stop-opacity:1;stop-color:#55e6e1"
         offset="0.424636"
         id="stop46-3" />
      <stop
         style="stop-opacity:1;stop-color:#0195b6"
         offset="1"
         id="stop48-6" />
    </radialGradient>
  </defs>
  <metadata
     id="metadata5">
    <rdf:RDF>
      <cc:Work
         rdf:about="">
        <dc:format>image/svg+xml</dc:format>
        <dc:type
           rdf:resource="http://purl.org/dc/dcmitype/StillImage" />
      </cc:Work>
    </rdf:RDF>
  </metadata>
  <g
     id="layer1"
     transform="translate(-169.98476,-132.41768)">
    <g
       id="g20"
       style="stroke-width:2.60378"
       transform="matrix(0.13548718,0,0,-0.13548718,117.70127,244.67598)">
      <path
         d="m 496.272,779.393 c 17.929,-17.581 46.02,-46.52 77.179,-83.14 v 0 c 23.151,-27.201 42.301,-52.061 55.44,-76.821 v 0 c 0.01,-0.01 0.01,-0.03 0.02,-0.039 v 0 c 11.95,-20.471 18.91,-43.901 19.361,-68.841 v 0 c 0.009,-0.369 0.02,-0.75 0.009,-1.119 v 0 c 0.011,-0.471 0.011,-0.951 0.011,-1.421 v 0 c 0,-49.74 -25.95,-93.74 -65.75,-120.539 v 0 c 66.71,18.009 115.799,78.96 115.799,151.369 v 0 c 0,0.501 0,1 -0.009,1.5 v 0 c 0.009,0.39 0,0.781 -0.01,1.161 v 0 c -0.501,25.46 -7.48,49.22 -19.45,73.06 v 0 c 0,0.009 -0.011,0.02 -0.011,0.029 v 0 c -13.18,26.25 -32.389,52.6 -55.599,81.431 v 0 c -33.87,42.05 -64.111,74.53 -81.701,92.53 v 0 c -10.929,-11.191 -26.749,-27.961 -45.289,-49.16"
         style="fill:url(#radialGradient28-9);stroke:none;stroke-width:2.60378"
         id="path30" />
    </g>
    <path
       d="m 182.89947,146.4024 c -0.61268,0.61253 -0.61268,1.60416 0,2.21683 v 0 l 6.60919,6.6092 v 3.06744 h -1.99464 c -0.55983,0 -1.07699,0.29928 -1.35758,0.78365 v 0 l -0.99732,1.72665 -2.65568,-1.5329 -2.41927,-9.02846 c -0.22368,-0.83623 -1.08267,-1.3336 -1.91903,-1.10842 v 0 c -0.83637,0.22355 -1.33211,1.08281 -1.10842,1.91904 v 0 l 1.60714,6.001 -2.69985,-1.55865 -1.00613,-3.75462 c -0.23656,0.3581 -0.46689,0.71511 -0.68909,1.07089 v 0 c -0.44724,0.71537 -0.8644,1.42519 -1.25203,2.13393 v 0 0.001 c -0.18819,0.34671 -0.36974,0.69234 -0.54317,1.03783 v 0 c 0,0.001 -0.001,0.003 -0.001,0.004 v 0 c -0.51715,1.03011 -0.9648,2.05913 -1.33793,3.09493 v 0 l 3.26253,-0.87416 2.70134,1.55864 -6.00235,1.60851 c -0.30945,0.0828 -0.57189,0.25295 -0.76889,0.47664 v 0 c -0.1172,0.52637 -0.21515,1.05612 -0.2913,1.59048 v 0 c 0.2325,0.61701 0.82376,1.0144 1.46476,1.0144 v 0 c 0.13535,0 0.2707,-0.0169 0.4074,-0.0541 v 0 l 9.0286,-2.41912 2.65555,1.53303 -0.99732,1.72814 c -0.27924,0.48437 -0.27924,1.08281 0,1.56718 v 0 l 0.99732,1.72827 -2.65555,1.53291 -9.0286,-2.41913 c -0.83622,-0.22517 -1.69535,0.27206 -1.92039,1.10842 v 0 c -0.001,0.005 -0.002,0.009 -0.003,0.0141 v 0 c 0.0481,0.4047 0.10772,0.80574 0.17817,1.20327 v 0 c 0.20215,0.33343 0.52704,0.59302 0.93337,0.70168 v 0 l 6.00235,1.60864 -2.70134,1.55851 -3.49502,-0.93649 c 0.42434,1.28483 0.96818,2.51519 1.61785,3.67821 v 0 l 0.17897,0.048 -0.0486,0.18142 c 0.67974,1.18213 1.46963,2.29257 2.3564,3.31726 v 0 l 0.95776,-3.57415 2.69985,-1.55877 -1.60715,6.00099 c -0.22369,0.83636 0.27206,1.69535 1.10842,1.91904 v 0 c 0.13522,0.037 0.27206,0.0541 0.40606,0.0541 v 0 c 0.69247,0 1.32493,-0.46147 1.51298,-1.16234 v 0 l 2.41926,-9.02846 2.65569,-1.53304 0.99732,1.72665 c 0.28059,0.48599 0.79775,0.78352 1.35757,0.78352 v 0 h 1.99465 v 3.06757 l -6.6092,6.60934 c -0.61267,0.61253 -0.61267,1.60416 0,2.21683 v 0 c 0.61118,0.61105 1.60417,0.61105 2.21535,0 v 0 l 4.39385,-4.39385 v 3.11852 l -2.67831,2.67844 c 0.25756,0.0522 4.21609,0.12668 6.60391,-1.88706 v 0 l -0.7911,-0.79138 v -3.11852 l 2.74754,2.74769 c 0.88378,-0.59412 1.7093,-1.25136 2.46817,-1.9643 v 0 l -5.21571,-5.21571 v -3.06757 h 1.9945 c 0.55984,0 1.07712,-0.29753 1.35785,-0.78352 v 0 l 0.99719,-1.72665 2.65568,1.53304 1.4107,5.26463 c 1.39768,-2.39637 2.18622,-5.1118 2.18622,-7.98874 v 0 c 0,-0.0557 0,-0.11123 -0.001,-0.16664 v 0 c 0,-0.12194 -0.004,-0.24348 -0.009,-0.36447 v 0 l -2.01903,0.541 -2.65555,-1.5329 0.99719,-1.72827 c 0.27937,-0.48437 0.27937,-1.08282 0,-1.56718 v 0 l -0.99719,-1.72814 2.48063,-1.43196 c -0.0897,-0.1653 -0.18168,-0.33086 -0.27612,-0.49616 v 0 c -0.002,-0.003 -0.004,-0.005 -0.005,-0.009 v 0 c -0.4112,-0.71822 -0.86915,-1.43738 -1.36842,-2.16075 v 0 l -2.39798,1.38414 -0.99719,-1.72665 c -0.28073,-0.48437 -0.79802,-0.78366 -1.35786,-0.78366 v 0 h -1.9945 v -3.06743 l 1.84886,-1.84886 c -0.27491,-0.30511 -0.5532,-0.61186 -0.83772,-0.92199 v 0 c -0.0203,-0.0215 -0.0406,-0.0446 -0.061,-0.0664 v 0 c -1.42654,-1.55241 -2.8016,-2.98695 -4.08467,-4.28505 v 0 2.6901 l -4.39384,-4.39385 c -0.30553,-0.30566 -0.70657,-0.45849 -1.10775,-0.45849 v 0 c -0.40104,0 -0.80208,0.15283 -1.1076,0.45849 m 2.8623,19.62979 2.65717,-4.60183 h 5.31395 l 2.65717,4.60183 -2.65717,4.60182 h -5.31395 z"
       style="display:inline;fill:url(#radialGradient50-0);stroke:none;stroke-width:0.352777"
       id="path52" />
  </g>
</svg>
